<svg width="20" height="20" viewBox="0 0 20 20" fill="none" xmlns="http://www.w3.org/2000/svg">
<path d="M10.0003 8.33317C11.8413 8.33317 13.3337 6.84079 13.3337 4.99984C13.3337 3.15889 11.8413 1.6665 10.0003 1.6665C8.15938 1.6665 6.66699 3.15889 6.66699 4.99984C6.66699 6.84079 8.15938 8.33317 10.0003 8.33317Z" stroke="white" stroke-width="1.5"/>
<path d="M16.6652 14.9997C16.6668 14.863 16.6668 14.7238 16.6668 14.583C16.6668 12.5122 13.6818 10.833 10.0002 10.833C6.3185 10.833 3.3335 12.5122 3.3335 14.583C3.3335 16.6538 3.3335 18.333 10.0002 18.333C11.8593 18.333 13.2002 18.2022 14.1668 17.9688" stroke="white" stroke-width="1.5" stroke-linecap="round"/>
</svg>
