<svg width="20" height="20" viewBox="0 0 20 20" fill="none" xmlns="http://www.w3.org/2000/svg">
<path d="M6.6665 2.9165C6.6665 2.58498 6.7982 2.26704 7.03262 2.03262C7.26704 1.7982 7.58498 1.6665 7.9165 1.6665H12.0832C12.4147 1.6665 12.7326 1.7982 12.9671 2.03262C13.2015 2.26704 13.3332 2.58498 13.3332 2.9165V3.74984C13.3332 4.08136 13.2015 4.3993 12.9671 4.63372C12.7326 4.86814 12.4147 4.99984 12.0832 4.99984H7.9165C7.58498 4.99984 7.26704 4.86814 7.03262 4.63372C6.7982 4.3993 6.6665 4.08136 6.6665 3.74984V2.9165Z" stroke="white" stroke-width="1.5"/>
<path d="M12.5 10.8333H10M10 10.8333H7.5M10 10.8333V8.33329M10 10.8333V13.3333M17.5 13.3333C17.5 15.6908 17.5 16.8691 16.7675 17.6016C16.0358 18.3333 14.8567 18.3333 12.5 18.3333H7.5C5.14333 18.3333 3.96417 18.3333 3.2325 17.6016C2.5 16.8683 2.5 15.6908 2.5 13.3333V10.8333M13.3333 3.33496C15.1458 3.34496 16.1275 3.42579 16.7675 4.06579C17.5 4.79829 17.5 5.97663 17.5 8.33329V9.99996M6.66667 3.33496C4.85417 3.34496 3.8725 3.42579 3.2325 4.06579C2.59167 4.70579 2.51167 5.68746 2.50167 7.49996" stroke="white" stroke-width="1.5" stroke-linecap="round"/>
</svg>
