<svg width="16" height="16" viewBox="0 0 16 16" fill="none" xmlns="http://www.w3.org/2000/svg">
<g clip-path="url(#clip0_1_24659)">
<path d="M2.99992 14.6668V11.3335M2.99992 4.66683V1.3335M1.33325 3.00016H4.66659M1.33325 13.0002H4.66659M8.66658 2.00016L7.51047 5.00607C7.32246 5.49489 7.22845 5.7393 7.08227 5.94489C6.95271 6.12709 6.79352 6.28629 6.61131 6.41585C6.40572 6.56203 6.16131 6.65604 5.67249 6.84404L2.66659 8.00016L5.67249 9.15628C6.16131 9.34429 6.40572 9.43829 6.61131 9.58448C6.79352 9.71404 6.95271 9.87323 7.08227 10.0554C7.22846 10.261 7.32246 10.5054 7.51047 10.9943L8.66659 14.0002L9.8227 10.9943C10.0107 10.5054 10.1047 10.261 10.2509 10.0554C10.3805 9.87323 10.5397 9.71404 10.7219 9.58448C10.9274 9.43829 11.1719 9.34429 11.6607 9.15628L14.6666 8.00016L11.6607 6.84404C11.1719 6.65604 10.9274 6.56203 10.7219 6.41585C10.5397 6.28629 10.3805 6.12709 10.2509 5.94489C10.1047 5.7393 10.0107 5.49489 9.8227 5.00607L8.66658 2.00016Z" stroke="white" stroke-width="1.5" stroke-linecap="round" stroke-linejoin="round"/>
</g>
<defs>
<clipPath id="clip0_1_24659">
<rect width="16" height="16" fill="white"/>
</clipPath>
</defs>
</svg>
