<svg width="13" height="4" viewBox="0 0 13 4" fill="none" xmlns="http://www.w3.org/2000/svg">
<path d="M1.37141 0.5C1.03041 0.5 0.703388 0.658035 0.46227 0.93934C0.221152 1.22064 0.0856934 1.60218 0.0856934 2C0.0856934 2.39782 0.221152 2.77936 0.46227 3.06066C0.703388 3.34196 1.03041 3.5 1.37141 3.5C1.7124 3.5 2.03943 3.34196 2.28054 3.06066C2.52166 2.77936 2.65712 2.39782 2.65712 2C2.65712 1.60218 2.52166 1.22064 2.28054 0.93934C2.03943 0.658035 1.7124 0.5 1.37141 0.5ZM5.22855 2C5.22855 1.60218 5.36401 1.22064 5.60513 0.93934C5.84625 0.658035 6.17327 0.5 6.51426 0.5C6.85526 0.5 7.18228 0.658035 7.4234 0.93934C7.66452 1.22064 7.79998 1.60218 7.79998 2C7.79998 2.39782 7.66452 2.77936 7.4234 3.06066C7.18228 3.34196 6.85526 3.5 6.51426 3.5C6.17327 3.5 5.84625 3.34196 5.60513 3.06066C5.36401 2.77936 5.22855 2.39782 5.22855 2ZM10.3714 2C10.3714 1.60218 10.5069 1.22064 10.748 0.93934C10.9891 0.658035 11.3161 0.5 11.6571 0.5C11.9981 0.5 12.3251 0.658035 12.5663 0.93934C12.8074 1.22064 12.9428 1.60218 12.9428 2C12.9428 2.39782 12.8074 2.77936 12.5663 3.06066C12.3251 3.34196 11.9981 3.5 11.6571 3.5C11.3161 3.5 10.9891 3.34196 10.748 3.06066C10.5069 2.77936 10.3714 2.39782 10.3714 2Z" fill="white"/>
</svg>
