<svg width="28" height="28" viewBox="0 0 28 28" fill="none" xmlns="http://www.w3.org/2000/svg">
<circle cx="14" cy="14" r="13.5" transform="matrix(-1 0 0 1 28 0)" fill="#212121" stroke="white"/>
<path fill-rule="evenodd" clip-rule="evenodd" d="M15.5748 6.79308C16.1246 6.25421 16.865 5.95412 17.6348 5.95805C18.4047 5.96197 19.142 6.26958 19.6863 6.81403C20.2307 7.35848 20.5381 8.09576 20.5419 8.86565C20.5457 9.63554 20.2455 10.3758 19.7065 10.9256L14.011 16.6211C13.69 16.9421 13.4935 17.1386 13.276 17.3088C13.0185 17.5095 12.7398 17.6815 12.445 17.8218C12.1945 17.9411 11.9313 18.0288 11.5008 18.1721L9.49677 18.8403L9.01527 19.0008C8.80403 19.0714 8.57731 19.0817 8.36054 19.0306C8.14377 18.9795 7.94552 18.869 7.78804 18.7115C7.63056 18.5541 7.52008 18.3558 7.46898 18.1391C7.41788 17.9223 7.4282 17.6956 7.49877 17.4843L8.32752 14.9988C8.47077 14.5683 8.55852 14.3051 8.67777 14.0546C8.81835 13.76 8.99061 13.4816 9.19152 13.2243C9.36177 13.0061 9.55752 12.8096 9.87852 12.4893L15.5748 6.79308ZM9.46977 17.6636L8.83677 17.0291L9.38277 15.3903C9.54177 14.9133 9.60777 14.7191 9.69327 14.5391C9.79827 14.3178 9.92802 14.1093 10.078 13.9166C10.201 13.7591 10.345 13.6136 10.7005 13.2573L15.1188 8.83983C15.3483 9.41339 15.6926 9.93402 16.1305 10.3698C16.5664 10.8074 17.087 11.1515 17.6605 11.3808L13.2423 15.7983C12.886 16.1546 12.7413 16.2986 12.5838 16.4208C12.3907 16.5713 12.182 16.7005 11.9613 16.8063C11.7813 16.8918 11.5863 16.9578 11.1093 17.1168L9.46977 17.6636ZM18.5568 10.4838C18.4412 10.4583 18.3273 10.426 18.2155 10.3871C17.7295 10.2172 17.2885 9.93919 16.9255 9.57408C16.5605 9.21103 16.2826 8.76999 16.1125 8.28408C16.0734 8.17234 16.0408 8.05839 16.015 7.94283L16.3698 7.58883C16.7086 7.26095 17.1627 7.07936 17.6342 7.08323C18.1056 7.08709 18.5567 7.2761 18.8901 7.6095C19.2235 7.94289 19.4125 8.39396 19.4164 8.86543C19.4202 9.33691 19.2386 9.79101 18.9108 10.1298L18.5568 10.4838ZM7.43727 21.4998C7.43727 21.3506 7.49653 21.2076 7.60202 21.1021C7.70751 20.9966 7.85058 20.9373 7.99977 20.9373H19.9998V22.0623H7.99977C7.85058 22.0623 7.70751 22.0031 7.60202 21.8976C7.49653 21.7921 7.43727 21.649 7.43727 21.4998Z" fill="white"/>
</svg>
