<svg width="12" height="12" viewBox="0 0 12 12" fill="none" xmlns="http://www.w3.org/2000/svg">
<path d="M3.94493 6.51486C4.22936 6.51486 4.45993 6.28429 4.45993 5.99986C4.45993 5.71544 4.22936 5.48486 3.94493 5.48486C3.6605 5.48486 3.42993 5.71544 3.42993 5.99986C3.42993 6.28429 3.6605 6.51486 3.94493 6.51486Z" fill="white"/>
<path d="M5.99986 6.51486C6.28429 6.51486 6.51486 6.28429 6.51486 5.99986C6.51486 5.71544 6.28429 5.48486 5.99986 5.48486C5.71544 5.48486 5.48486 5.71544 5.48486 5.99986C5.48486 6.28429 5.71544 6.51486 5.99986 6.51486Z" fill="white"/>
<path d="M8.05504 6.51486C8.33947 6.51486 8.57004 6.28429 8.57004 5.99986C8.57004 5.71544 8.33947 5.48486 8.05504 5.48486C7.77061 5.48486 7.54004 5.71544 7.54004 5.99986C7.54004 6.28429 7.77061 6.51486 8.05504 6.51486Z" fill="white"/>
<path d="M10.22 7.9H10.215C10.475 7.32 10.625 6.675 10.625 6C10.625 3.445 8.555 1.375 6 1.375C3.445 1.375 1.375 3.445 1.375 6C1.375 8.555 3.445 10.625 6 10.625C6.755 10.625 7.47 10.44 8.1 10.12L10.6 10.49L10.22 7.9Z" fill="white" stroke="#575389" stroke-linecap="round" stroke-linejoin="round"/>
</svg>
