<svg width="12" height="12" viewBox="0 0 12 12" fill="none" xmlns="http://www.w3.org/2000/svg">
<path d="M10.1 4.50503C10.8 5.35003 10.8 6.65003 10.1 7.49503C9.10001 8.70003 7.63501 9.47003 6.00001 9.47003C4.36501 9.47003 2.905 8.70503 1.9 7.49503C1.2 6.65003 1.2 5.35003 1.9 4.50503C2.9 3.30003 4.36501 2.53003 6.00001 2.53003C7.63501 2.53003 9.09501 3.29503 10.1 4.50503Z" fill="white" stroke="#575389" stroke-linecap="round" stroke-linejoin="round"/>
<path d="M10.1 4.50503C10.8 5.35003 10.8 6.65003 10.1 7.49503C9.10001 8.70003 7.63501 9.47003 6.00001 9.47003C4.36501 9.47003 2.905 8.70503 1.9 7.49503C1.2 6.65003 1.2 5.35003 1.9 4.50503C2.9 3.30003 4.36501 2.53003 6.00001 2.53003C7.63501 2.53003 9.09501 3.29503 10.1 4.50503Z" fill="white" stroke="#575389" stroke-linecap="round" stroke-linejoin="round"/>
<path d="M5.99995 7.53996C6.85047 7.53996 7.53995 6.85048 7.53995 5.99996C7.53995 5.14944 6.85047 4.45996 5.99995 4.45996C5.14944 4.45996 4.45996 5.14944 4.45996 5.99996C4.45996 6.85048 5.14944 7.53996 5.99995 7.53996Z" fill="white" stroke="#575389" stroke-linecap="round" stroke-linejoin="round"/>
</svg>
