<svg width="24" height="24" viewBox="0 0 24 24" fill="none" xmlns="http://www.w3.org/2000/svg">
<circle cx="12" cy="12" r="12" fill="white"/>
<path d="M11.5002 8.97904L11.2077 9.2607C11.2456 9.30002 11.291 9.3313 11.3412 9.35266C11.3915 9.37402 11.4456 9.38503 11.5002 9.38503C11.5548 9.38503 11.6088 9.37402 11.6591 9.35266C11.7093 9.3313 11.7548 9.30002 11.7927 9.2607L11.5002 8.97904ZM8.79237 14.894C8.70905 14.8255 8.60192 14.7929 8.49455 14.8034C8.38717 14.8138 8.28835 14.8665 8.21983 14.9498C8.1513 15.0332 8.11868 15.1403 8.12915 15.2477C8.13961 15.355 8.1923 15.4538 8.27562 15.5224L8.79237 14.894ZM6.26875 13.2642C6.29435 13.311 6.32893 13.3523 6.3705 13.3857C6.41207 13.4192 6.45982 13.4441 6.51102 13.4591C6.56223 13.4741 6.61588 13.4788 6.66892 13.4731C6.72197 13.4673 6.77336 13.4512 6.82016 13.4256C6.86697 13.4 6.90827 13.3654 6.94171 13.3238C6.97516 13.2823 7.00008 13.2345 7.01507 13.1833C7.03006 13.1321 7.03482 13.0784 7.02907 13.0254C7.02333 12.9724 7.00719 12.921 6.98158 12.8742L6.26875 13.2642ZM6.48975 10.9491C6.48975 9.7845 7.14787 8.80733 8.0465 8.3962C8.91966 7.997 10.0929 8.10262 11.2077 9.2607L11.7927 8.69791C10.471 7.3237 8.93483 7.09675 7.7085 7.65737C6.50925 8.20608 5.67725 9.48008 5.67725 10.9491H6.48975ZM9.6027 16.5624C9.88058 16.7812 10.1785 17.0141 10.4802 17.1907C10.7819 17.3667 11.1264 17.5103 11.5002 17.5103V16.6978C11.3322 16.6978 11.1351 16.6328 10.8902 16.4892C10.6449 16.3462 10.3908 16.1491 10.1059 15.9243L9.6027 16.5624ZM13.3976 16.5624C14.17 15.953 15.158 15.2553 15.9326 14.3827C16.7218 13.4944 17.3231 12.3932 17.3231 10.9491H16.5106C16.5106 12.1397 16.0231 13.0567 15.3254 13.8432C14.6131 14.6449 13.7156 15.277 12.8944 15.9243L13.3976 16.5624ZM17.3231 10.9491C17.3231 9.48008 16.4916 8.20608 15.2918 7.65737C14.0655 7.09675 12.5304 7.3237 11.2077 8.69737L11.7927 9.2607C12.9074 8.10316 14.0807 7.997 14.9538 8.3962C15.8525 8.80733 16.5106 9.78395 16.5106 10.9491H17.3231ZM12.8944 15.9243C12.6095 16.1491 12.3555 16.3462 12.1101 16.4892C11.8652 16.6322 11.6681 16.6978 11.5002 16.6978V17.5103C11.8739 17.5103 12.2184 17.3667 12.5201 17.1907C12.8224 17.0141 13.1197 16.7812 13.3976 16.5624L12.8944 15.9243ZM10.1059 15.9243C9.67475 15.5847 9.23654 15.2597 8.79237 14.894L8.27562 15.5224C8.7252 15.8923 9.20079 16.2455 9.6027 16.5624L10.1059 15.9243ZM6.98158 12.8747C6.65528 12.2856 6.48592 11.6225 6.48975 10.9491H5.67725C5.67725 11.8363 5.90475 12.5985 6.26875 13.2642L6.98158 12.8747Z" fill="#262626"/>
</svg>
