<svg width="20" height="20" viewBox="0 0 20 20" fill="none" xmlns="http://www.w3.org/2000/svg">
<path fill-rule="evenodd" clip-rule="evenodd" d="M2.09984 6.519C1.6665 7.30817 1.6665 8.26234 1.6665 10.169V11.4373C1.6665 14.6873 1.6665 16.3132 2.64317 17.3232C3.619 18.3332 5.19067 18.3332 8.33317 18.3332H11.6665C14.809 18.3332 16.3807 18.3332 17.3565 17.3232C18.3332 16.3132 18.3332 14.6882 18.3332 11.4373V10.1698C18.3332 8.26234 18.3332 7.309 17.8998 6.519C17.4682 5.72817 16.6773 5.23817 15.0965 4.2565L13.4298 3.22234C11.759 2.18484 10.9232 1.6665 9.99984 1.6665C9.0765 1.6665 8.2415 2.18484 6.56984 3.22234L4.90317 4.2565C3.32234 5.23817 2.53234 5.72817 2.09984 6.519ZM9.37484 14.9998C9.37484 15.1656 9.44069 15.3246 9.5579 15.4418C9.67511 15.559 9.83408 15.6248 9.99984 15.6248C10.1656 15.6248 10.3246 15.559 10.4418 15.4418C10.559 15.3246 10.6248 15.1656 10.6248 14.9998V12.4998C10.6248 12.3341 10.559 12.1751 10.4418 12.0579C10.3246 11.9407 10.1656 11.8748 9.99984 11.8748C9.83408 11.8748 9.67511 11.9407 9.5579 12.0579C9.44069 12.1751 9.37484 12.3341 9.37484 12.4998V14.9998Z" fill="white"/>
</svg>
