<svg width="24" height="24" viewBox="0 0 24 24" fill="none" xmlns="http://www.w3.org/2000/svg">
<path d="M8.84006 10.8398C10.508 10.8398 11.8601 9.4877 11.8601 7.8198C11.8601 6.1519 10.508 4.7998 8.84006 4.7998C7.17216 4.7998 5.82007 6.1519 5.82007 7.8198C5.82007 9.4877 7.17216 10.8398 8.84006 10.8398Z" stroke="white" stroke-width="1.5" stroke-linecap="round" stroke-linejoin="round"/>
<path d="M2.75 19.1999V17.4799C2.75 15.4799 4.37 13.8599 6.37 13.8599H11.79C13.79 13.8599 15.41 15.4799 15.41 17.4799V19.1999" stroke="white" stroke-width="1.5" stroke-linecap="round" stroke-linejoin="round"/>
<path d="M16.38 11.6997C17.6171 11.6997 18.62 10.6968 18.62 9.45972C18.62 8.22261 17.6171 7.21973 16.38 7.21973C15.1429 7.21973 14.14 8.22261 14.14 9.45972C14.14 10.6968 15.1429 11.6997 16.38 11.6997Z" stroke="white" stroke-width="1.5" stroke-linecap="round" stroke-linejoin="round"/>
<path d="M17.02 13.9399H18.56C20.04 13.9399 21.24 15.1399 21.24 16.6199V17.8999" stroke="white" stroke-width="1.5" stroke-linecap="round" stroke-linejoin="round"/>
</svg>
