<svg width="20" height="20" viewBox="0 0 20 20" fill="none" xmlns="http://www.w3.org/2000/svg">
<path d="M15.5194 11.2987H11.2987V15.5194C11.2987 15.7433 11.2097 15.958 11.0514 16.1163C10.8931 16.2747 10.6784 16.3636 10.4545 16.3636C10.2306 16.3636 10.0159 16.2747 9.85759 16.1163C9.69928 15.958 9.61035 15.7433 9.61035 15.5194V11.2987H5.38957C5.16568 11.2987 4.95097 11.2097 4.79266 11.0514C4.63435 10.8931 4.54541 10.6784 4.54541 10.4545C4.54541 10.2306 4.63435 10.0159 4.79266 9.85759C4.95097 9.69928 5.16568 9.61035 5.38957 9.61035H9.61035V5.38957C9.61035 5.16568 9.69928 4.95097 9.85759 4.79266C10.0159 4.63435 10.2306 4.54541 10.4545 4.54541C10.6784 4.54541 10.8931 4.63435 11.0514 4.79266C11.2097 4.95097 11.2987 5.16568 11.2987 5.38957V9.61035H15.5194C15.7433 9.61035 15.958 9.69928 16.1163 9.85759C16.2747 10.0159 16.3636 10.2306 16.3636 10.4545C16.3636 10.6784 16.2747 10.8931 16.1163 11.0514C15.958 11.2097 15.7433 11.2987 15.5194 11.2987Z" fill="#D2D2D2"/>
</svg>
