<svg width="26" height="24" viewBox="0 0 26 24" fill="none" xmlns="http://www.w3.org/2000/svg">
<path d="M18 21V19C18 17.9391 17.5786 16.9217 16.8284 16.1716C16.0783 15.4214 15.0609 15 14 15H6C4.93913 15 3.92172 15.4214 3.17157 16.1716C2.42143 16.9217 2 17.9391 2 19V21M24 21V19C23.9993 18.1137 23.7044 17.2528 23.1614 16.5523C22.6184 15.8519 21.8581 15.3516 21 15.13M17 3.13C17.8604 3.3503 18.623 3.8507 19.1676 4.55231C19.7122 5.25392 20.0078 6.11683 20.0078 7.005C20.0078 7.89317 19.7122 8.75608 19.1676 9.45769C18.623 10.1593 17.8604 10.6597 17 10.88M14 7C14 9.20914 12.2091 11 10 11C7.79086 11 6 9.20914 6 7C6 4.79086 7.79086 3 10 3C12.2091 3 14 4.79086 14 7Z" stroke="white" stroke-width="2.5" stroke-linecap="round" stroke-linejoin="round"/>
</svg>
