<svg width="24" height="24" viewBox="0 0 24 24" fill="none" xmlns="http://www.w3.org/2000/svg">
<path d="M10.0292 8.97015C9.887 8.83767 9.69896 8.76555 9.50466 8.76898C9.31035 8.77241 9.12497 8.85112 8.98756 8.98853C8.85014 9.12595 8.77143 9.31133 8.768 9.50563C8.76457 9.69993 8.8367 9.88798 8.96918 10.0302L10.9392 12.0002L8.96918 13.9702C8.89549 14.0388 8.83639 14.1216 8.7954 14.2136C8.7544 14.3056 8.73236 14.4049 8.73059 14.5056C8.72881 14.6063 8.74733 14.7064 8.78505 14.7998C8.82278 14.8931 8.87892 14.978 8.95014 15.0492C9.02136 15.1204 9.10619 15.1766 9.19958 15.2143C9.29297 15.252 9.393 15.2705 9.4937 15.2687C9.5944 15.267 9.69372 15.2449 9.78572 15.2039C9.87771 15.1629 9.96051 15.1038 10.0292 15.0302L11.9992 13.0602L13.9692 15.0302C14.1114 15.1626 14.2994 15.2348 14.4937 15.2313C14.688 15.2279 14.8734 15.1492 15.0108 15.0118C15.1482 14.8744 15.2269 14.689 15.2304 14.4947C15.2338 14.3004 15.1617 14.1123 15.0292 13.9702L13.0592 12.0002L15.0292 10.0302C15.1029 9.96149 15.162 9.87869 15.203 9.78669C15.244 9.69469 15.266 9.59538 15.2678 9.49468C15.2695 9.39397 15.251 9.29394 15.2133 9.20056C15.1756 9.10717 15.1194 9.02233 15.0482 8.95112C14.977 8.8799 14.8922 8.82375 14.7988 8.78603C14.7054 8.74831 14.6054 8.72979 14.5047 8.73156C14.404 8.73334 14.3046 8.75538 14.2126 8.79637C14.1206 8.83736 14.0378 8.89647 13.9692 8.97015L11.9992 10.9402L10.0292 8.97015Z" fill="#FC6363"/>
<path fill-rule="evenodd" clip-rule="evenodd" d="M12 1.25C6.063 1.25 1.25 6.063 1.25 12C1.25 17.937 6.063 22.75 12 22.75C17.937 22.75 22.75 17.937 22.75 12C22.75 6.063 17.937 1.25 12 1.25ZM2.75 12C2.75 9.54675 3.72455 7.19397 5.45926 5.45926C7.19397 3.72455 9.54675 2.75 12 2.75C14.4533 2.75 16.806 3.72455 18.5407 5.45926C20.2754 7.19397 21.25 9.54675 21.25 12C21.25 14.4533 20.2754 16.806 18.5407 18.5407C16.806 20.2754 14.4533 21.25 12 21.25C9.54675 21.25 7.19397 20.2754 5.45926 18.5407C3.72455 16.806 2.75 14.4533 2.75 12Z" fill="#FC6363"/>
</svg>
