<svg width="24" height="25" viewBox="0 0 24 25" fill="none" xmlns="http://www.w3.org/2000/svg">
<path d="M12 15.5C13.6569 15.5 15 14.1569 15 12.5C15 10.8431 13.6569 9.5 12 9.5C10.3431 9.5 9 10.8431 9 12.5C9 14.1569 10.3431 15.5 12 15.5Z" stroke="white" stroke-width="1.5"/>
<path d="M3.66096 11.14C4.13396 11.436 4.43796 11.942 4.43796 12.5C4.43796 13.058 4.13396 13.564 3.66096 13.86C3.33996 14.063 3.13196 14.224 2.98496 14.416C2.82505 14.6244 2.70778 14.8623 2.63983 15.1161C2.57188 15.3699 2.5546 15.6345 2.58896 15.895C2.64096 16.289 2.87396 16.693 3.33896 17.5C3.80596 18.307 4.03896 18.71 4.35396 18.953C4.5624 19.1129 4.8003 19.2302 5.05407 19.2981C5.30784 19.3661 5.57251 19.3834 5.83296 19.349C6.07296 19.317 6.31596 19.219 6.65196 19.041C6.89242 18.9094 7.16239 18.8411 7.4365 18.8425C7.71061 18.8439 7.97986 18.915 8.21896 19.049C8.70196 19.329 8.98896 19.844 9.00896 20.402C9.02296 20.782 9.05896 21.042 9.15196 21.265C9.25248 21.5078 9.39986 21.7284 9.58569 21.9143C9.77151 22.1001 9.99214 22.2475 10.235 22.348C10.602 22.5 11.068 22.5 12 22.5C12.932 22.5 13.398 22.5 13.765 22.348C14.0078 22.2475 14.2284 22.1001 14.4142 21.9143C14.6001 21.7284 14.7474 21.5078 14.848 21.265C14.94 21.042 14.977 20.782 14.991 20.402C15.011 19.844 15.298 19.328 15.781 19.049C16.0201 18.915 16.2893 18.8439 16.5634 18.8425C16.8375 18.8411 17.1075 18.9094 17.348 19.041C17.684 19.219 17.928 19.317 18.168 19.349C18.6936 19.4181 19.2253 19.2757 19.646 18.953C19.961 18.711 20.194 18.307 20.66 17.5C20.868 17.14 21.029 16.861 21.149 16.627M20.339 13.861C20.1048 13.7187 19.9107 13.5192 19.7748 13.2814C19.6389 13.0435 19.5657 12.775 19.562 12.501C19.562 11.942 19.866 11.436 20.339 11.139C20.66 10.937 20.867 10.776 21.015 10.584C21.1749 10.3756 21.2921 10.1377 21.3601 9.88389C21.428 9.63012 21.4453 9.36545 21.411 9.105C21.359 8.711 21.126 8.307 20.661 7.5C20.194 6.693 19.961 6.29 19.646 6.047C19.4375 5.88709 19.1996 5.76981 18.9459 5.70187C18.6921 5.63392 18.4274 5.61664 18.167 5.651C17.927 5.683 17.684 5.781 17.347 5.959C17.1066 6.09042 16.8368 6.15862 16.5629 6.15722C16.289 6.15582 16.0199 6.08486 15.781 5.951C15.5454 5.81091 15.3493 5.61324 15.2112 5.37657C15.073 5.1399 14.9972 4.87199 14.991 4.598C14.977 4.218 14.941 3.958 14.848 3.735C14.7474 3.49218 14.6001 3.27155 14.4142 3.08572C14.2284 2.8999 14.0078 2.75251 13.765 2.652C13.398 2.5 12.932 2.5 12 2.5C11.068 2.5 10.602 2.5 10.235 2.652C9.99214 2.75251 9.77151 2.8999 9.58569 3.08572C9.39986 3.27155 9.25248 3.49218 9.15196 3.735C9.05996 3.958 9.02296 4.218 9.00896 4.598C9.00273 4.87199 8.92696 5.1399 8.78877 5.37657C8.65059 5.61324 8.45451 5.81091 8.21896 5.951C7.97986 6.08504 7.71061 6.1561 7.4365 6.1575C7.16239 6.1589 6.89242 6.09059 6.65196 5.959C6.31596 5.781 6.07196 5.683 5.83196 5.651C5.30628 5.58187 4.77466 5.72431 4.35396 6.047C4.03996 6.29 3.80596 6.693 3.33996 7.5C3.13196 7.86 2.97096 8.139 2.85096 8.373" stroke="white" stroke-width="1.5" stroke-linecap="round"/>
</svg>
