<svg width="64" height="65" viewBox="0 0 64 65" fill="none" xmlns="http://www.w3.org/2000/svg">
<path d="M94 18.1638V18.1704C94 18.4487 94 18.7203 93.9934 19.0051C93.7806 18.9985 93.5512 18.9985 93.3384 18.9985C67.8021 18.9985 47.0931 39.5746 46.9967 65C46.9102 39.5746 26.1979 18.9985 0.661597 18.9985C0.442172 18.9985 0.219423 18.9985 0.0066481 19.0051C-1.1159e-06 18.7203 0 18.4487 0 18.1704V18.1638C0.219424 18.1704 0.435523 18.1704 0.661597 18.1704C26.2544 18.1704 46.9967 -2.50176 46.9967 -28C46.9967 -2.50176 67.7456 18.1704 93.3384 18.1704C93.5678 18.1704 93.7806 18.1704 94 18.1638Z" fill="#D6F2FF"/>
</svg>
